<?xml version="1.0" standalone="no"?>
<!DOCTYPE svg PUBLIC "-//W3C//DTD SVG 1.1//EN" "http://www.w3.org/Graphics/SVG/1.1/DTD/svg11.dtd" >
<svg xmlns="http://www.w3.org/2000/svg">
<metadata></metadata>
<defs>
<font id="fidelity_sansregular" horiz-adv-x="560" >
<font-face units-per-em="1000" ascent="750" descent="-250" />
<missing-glyph horiz-adv-x="250" />
<glyph unicode="&#xfb01;" d="M485 669q0 -21 -14.5 -36t-35.5 -15q-22 0 -36.5 14.5t-14.5 36.5q0 21 15 36t36 15t35.5 -15t14.5 -36zM475 0h-81v412h-209v-412h-81v412h-89v68h89v82q0 76 41 117t114 41q13 0 28.5 -1.5t28.5 -4.5v-71q-12 5 -23.5 7t-22.5 2q-41 0 -63 -25.5t-22 -72.5v-74h290 v-480z" />
<glyph unicode="&#xfb02;" d="M394 708h81v-586q0 -27 13 -41.5t38 -14.5h21v-66h-47q-51 0 -78.5 29t-27.5 82v597zM305 480v-68h-120v-412h-81v412h-89v68h89v82q0 76 41 117t114 41q13 0 28.5 -1.5t28.5 -4.5v-71q-12 5 -23.5 7t-22.5 2q-41 0 -63 -25.5t-22 -72.5v-74h120z" />
<glyph unicode="&#xfb03;" horiz-adv-x="854" d="M779 669q0 -21 -14.5 -36t-35.5 -15q-22 0 -36.5 14.5t-14.5 36.5q0 21 15 36t36 15t35.5 -15t14.5 -36zM479 0h-81v412h-213v-412h-81v412h-89v68h89v82q0 76 41 117t114 41q13 0 28.5 -1.5t28.5 -4.5v-71q-12 5 -23.5 7t-22.5 2q-41 0 -63 -25.5t-22 -72.5v-74h213v82 q0 76 41 117t114 41q13 0 28.5 -1.5t28.5 -4.5v-71q-12 5 -23.5 7t-22.5 2q-41 0 -63 -25.5t-22 -72.5v-74h290v-480h-81v412h-209v-412z" />
<glyph unicode="&#xfb04;" horiz-adv-x="854" d="M688 708h81v-586q0 -27 13 -41.5t38 -14.5h21v-66h-47q-51 0 -78.5 29t-27.5 82v597zM479 0h-81v412h-213v-412h-81v412h-89v68h89v82q0 76 41 117t114 41q13 0 28.5 -1.5t28.5 -4.5v-71q-12 5 -23.5 7t-22.5 2q-41 0 -63 -25.5t-22 -72.5v-74h213v82q0 76 41 117t114 41 q13 0 28.5 -1.5t28.5 -4.5v-71q-12 5 -23.5 7t-22.5 2q-41 0 -63 -25.5t-22 -72.5v-74h120v-68h-120v-412z" />
<glyph horiz-adv-x="0" />
<glyph horiz-adv-x="0" />
<glyph horiz-adv-x="333" />
<glyph unicode="&#xd;" horiz-adv-x="0" />
<glyph unicode=" "  horiz-adv-x="250" />
<glyph unicode="&#x09;" horiz-adv-x="250" />
<glyph unicode="&#xa0;" horiz-adv-x="250" />
<glyph unicode="!" horiz-adv-x="335" d="M205 199h-76l-14 509h105zM225 45q0 -23 -16.5 -38t-41.5 -15t-41.5 15t-16.5 38q0 24 17 40t41 16t41 -16.5t17 -39.5z" />
<glyph unicode="&#x22;" horiz-adv-x="458" d="M181 461h-77v247h77v-247zM353 461h-77v247h77v-247z" />
<glyph unicode="#" horiz-adv-x="574" d="M353 430h-131l-20 -153h131zM521 430h-107l-20 -153h99v-56h-107l-29 -221h-60l28 221h-131l-29 -221h-61l28 221h-99v56h107l21 153h-99v56h107l28 222h62l-30 -222h132l30 222h60l-29 -222h99v-56z" />
<glyph unicode="$" d="M142 531q0 -44 26 -73t90 -50v242q-54 -8 -85 -39.5t-31 -79.5zM425 181q0 42 -26.5 71.5t-86.5 52.5v-246q53 9 83 41.5t30 80.5zM312 -12v-74h-54v71q-56 1 -110 18t-103 48v104q55 -47 108 -72t105 -28v267q-112 32 -158.5 80.5t-46.5 126.5q0 79 56 130.5t149 61.5 v71h54v-69q53 -3 100.5 -19t86.5 -44v-99q-46 40 -93 63t-94 27v-260q112 -35 157.5 -82t45.5 -121q0 -81 -55.5 -134.5t-147.5 -65.5z" />
<glyph unicode="%" horiz-adv-x="860" d="M675 710l-434 -741l-58 29l436 741zM216 719q71 0 122 -51t51 -123t-50.5 -122.5t-122.5 -50.5t-122.5 50.5t-50.5 122.5t50.5 123t122.5 51zM216 442q42 0 72 30t30 73t-30 73t-72 30q-43 0 -72.5 -30t-29.5 -73t29.5 -73t72.5 -30zM643 335q72 0 122.5 -50.5 t50.5 -122.5t-50.5 -122.5t-122.5 -50.5t-122.5 50.5t-50.5 122.5t50.5 122.5t122.5 50.5zM643 59q43 0 72.5 30t29.5 73t-29.5 73t-72.5 30q-42 0 -72 -30t-30 -73t30 -73t72 -30z" />
<glyph unicode="&#x26;" horiz-adv-x="751" d="M295 425q67 31 96.5 64t29.5 73q0 42 -28 70t-70 28q-44 0 -73.5 -29t-29.5 -73q0 -31 19 -64.5t56 -68.5zM288 53q50 0 89.5 24t72.5 75l-180 189q-64 -28 -94 -66t-30 -88q0 -57 41.5 -95.5t100.5 -38.5zM707 0h-110l-94 99q-44 -58 -96.5 -85.5t-120.5 -27.5 q-98 0 -161 55t-63 145q0 66 39.5 117t122.5 90q-44 46 -64 85.5t-20 79.5q0 76 51 122t131 46q77 0 126.5 -44.5t49.5 -116.5q0 -58 -37.5 -103.5t-119.5 -85.5l156 -163l94 163h93l-133 -214z" />
<glyph unicode="'" horiz-adv-x="285" d="M181 461h-77v247h77v-247z" />
<glyph unicode="(" horiz-adv-x="306" d="M259 -124l-61 -36q-64 93 -100 212t-36 240t36 240.5t100 211.5l61 -36q-57 -79 -89.5 -191t-32.5 -225t32.5 -225t89.5 -191z" />
<glyph unicode=")" horiz-adv-x="306" d="M243 292q0 -123 -35.5 -241.5t-100.5 -210.5l-61 36q57 79 90 191.5t33 224.5t-33 224.5t-90 191.5l61 36q64 -92 100 -211t36 -241z" />
<glyph unicode="*" horiz-adv-x="473" d="M435 548l-147 -45l91 -126l-52 -34l-92 127l-90 -125l-52 34l92 124l-148 46l21 54l146 -47v152h65v-153l146 47z" />
<glyph unicode="+" d="M35 271v64h210v215h71v-215h208v-64h-208v-215h-71v215h-210z" />
<glyph unicode="," horiz-adv-x="281" d="M194 81l-81 -229h-69l66 229h84z" />
<glyph unicode="-" horiz-adv-x="312" d="M263 208h-215v75h215v-75z" />
<glyph unicode="." horiz-adv-x="281" d="M197 47q0 -24 -16.5 -39.5t-39.5 -15.5q-25 0 -41 15.5t-16 39.5q0 23 17 39.5t40 16.5t39.5 -16.5t16.5 -39.5z" />
<glyph unicode="/" horiz-adv-x="397" d="M386 708l-297 -708h-78l297 708h78z" />
<glyph unicode="0" d="M280 722q112 0 173.5 -98.5t61.5 -269.5t-61.5 -269.5t-173.5 -98.5q-113 0 -174.5 98t-61.5 270q0 171 61.5 269.5t174.5 98.5zM280 60q72 0 109 76t37 218q0 141 -37 217.5t-109 76.5t-109.5 -76t-37.5 -218t37.5 -218t109.5 -76z" />
<glyph unicode="1" d="M359 0h-86v606q-28 -31 -63.5 -57t-81.5 -49l-32 69q49 25 93.5 59t87.5 80h82v-708z" />
<glyph unicode="2" d="M46 0v74l244 254q61 63 85.5 105.5t24.5 84.5q0 59 -36 94.5t-94 35.5q-55 0 -102.5 -26t-108.5 -90v101q50 47 102 68t118 21q94 0 151.5 -52.5t57.5 -139.5q0 -58 -26 -108.5t-111 -138.5l-200 -209h341v-74h-446z" />
<glyph unicode="3" d="M263 648q-51 0 -96.5 -19t-97.5 -62v95q46 32 93 46t104 14q96 0 152 -49.5t56 -135.5q0 -59 -37 -104.5t-97 -58.5v-3q72 -17 113.5 -65t41.5 -112q0 -95 -63 -151.5t-169 -56.5q-60 0 -116 19.5t-103 56.5v105q54 -55 109 -81t116 -27q62 -1 100 38t38 102 q0 61 -46 96.5t-121 35.5h-62v73h64q65 0 104.5 33t39.5 91q0 54 -34 87t-89 33z" />
<glyph unicode="4" d="M534 164h-98v-164h-86v164h-320v72q46 104 125 229.5t171 242.5h109v-477h99v-67zM351 231v395h-3q-72 -95 -136 -199.5t-105 -195.5h244z" />
<glyph unicode="5" d="M265 -14q-59 0 -105.5 13.5t-85.5 42.5v95q49 -44 92 -62.5t94 -18.5q67 0 111 45t44 120q0 72 -46.5 115t-126.5 43q-35 0 -73.5 -9.5t-86.5 -30.5v369h387v-75h-307v-204q22 8 47.5 12t51.5 4q110 0 176.5 -61.5t66.5 -162.5q0 -108 -67 -171.5t-172 -63.5z" />
<glyph unicode="6" d="M114 410l186 298h97l-195 -300l2 -2q16 13 44 21t57 8q93 0 155 -63t62 -158q0 -101 -66.5 -165.5t-170.5 -64.5q-103 0 -170.5 64.5t-67.5 163.5q0 46 15 91t52 107zM130 211q0 -68 44 -113.5t111 -45.5q68 0 111.5 45t43.5 115q0 69 -43 113.5t-110 44.5 q-69 0 -113 -45t-44 -114z" />
<glyph unicode="7" d="M491 630l-287 -630h-93l296 633h-354v75h438v-78z" />
<glyph unicode="8" d="M490 537q0 -54 -30.5 -98t-81.5 -62v-2q63 -21 98.5 -70t35.5 -113q0 -93 -65 -149.5t-167 -56.5q-103 0 -168 56t-65 150q0 64 36 113.5t98 68.5v3q-52 20 -82 63.5t-30 96.5q0 83 59.5 134t151.5 51q91 0 150.5 -51.5t59.5 -133.5zM403 532q0 54 -35 89.5t-88 35.5 q-54 0 -89.5 -35.5t-35.5 -89.5t36 -91.5t89 -37.5q52 0 87.5 38t35.5 91zM423 194q0 64 -40.5 105.5t-102.5 41.5q-63 0 -104 -42t-41 -105t40.5 -104t104.5 -41q63 0 103 41t40 104z" />
<glyph unicode="9" d="M450 299l-185 -299h-97l194 302l-1 1q-17 -13 -45.5 -21.5t-56.5 -8.5q-93 0 -155 62.5t-62 157.5q0 102 67 166.5t171 64.5q102 0 169.5 -64.5t67.5 -163.5q0 -48 -15.5 -94t-51.5 -103zM435 497q0 68 -44 113.5t-111 45.5q-69 0 -112.5 -45t-43.5 -115q0 -69 43 -113 t111 -44q69 0 113 44.5t44 113.5z" />
<glyph unicode=":" horiz-adv-x="307" d="M210 434q0 -24 -16.5 -40t-39.5 -16q-24 0 -40.5 16t-16.5 40t16.5 40.5t40.5 16.5q23 0 39.5 -16.5t16.5 -40.5zM210 47q0 -24 -16.5 -39.5t-39.5 -15.5q-25 0 -41 15.5t-16 39.5q0 23 17 39.5t40 16.5t39.5 -16.5t16.5 -39.5z" />
<glyph unicode=";" horiz-adv-x="307" d="M154 378q-24 0 -40.5 16t-16.5 40t16.5 40.5t40.5 16.5q23 0 39.5 -16.5t16.5 -40.5t-16.5 -40t-39.5 -16zM199 81l-81 -229h-69l65 229h85z" />
<glyph unicode="&#x3c;" d="M524 122v-67l-489 216v60l489 218v-66l-396 -183z" />
<glyph unicode="=" d="M35 360v63h489v-63h-489zM35 183v63h489v-63h-489z" />
<glyph unicode="&#x3e;" d="M35 483v66l489 -218v-60l-489 -216v67l396 178z" />
<glyph unicode="?" horiz-adv-x="518" d="M476 544q0 -48 -19.5 -84t-84.5 -86l-67 -56v-118h-86v142l101 80q40 34 53.5 59t13.5 57q0 54 -34 85.5t-90 31.5q-54 0 -89.5 -30.5t-45.5 -83.5h-82q13 87 71 136t147 49q97 0 154.5 -49t57.5 -133zM320 45q0 -23 -16.5 -38t-41.5 -15t-41.5 15t-16.5 38q0 24 17 40 t41 16t41 -16.5t17 -39.5z" />
<glyph unicode="@" horiz-adv-x="800" d="M516 303l15 57h62l-50 -195q-7 -28 -10 -47t-3 -30q0 -24 12.5 -37t35.5 -13q61 0 96.5 53.5t35.5 141.5q0 120 -82.5 195.5t-212.5 75.5q-134 0 -225.5 -94.5t-91.5 -229.5q0 -140 91.5 -232.5t233.5 -92.5q72 0 140 30t115 82l36 -37q-57 -60 -132 -91t-164 -31 q-165 0 -272.5 105.5t-107.5 265.5q0 157 109 265t267 108q153 0 253 -89.5t100 -229.5q0 -112 -54.5 -179.5t-147.5 -67.5q-42 0 -66 20.5t-24 57.5h-2q-18 -35 -52.5 -56.5t-74.5 -21.5q-58 0 -92.5 40t-34.5 103q0 98 56.5 175t137.5 77q41 0 67.5 -21.5t31.5 -56.5h4z M494 240q0 41 -19 64.5t-54 23.5q-56 0 -95 -61.5t-39 -136.5q0 -43 20 -67.5t57 -24.5q28 0 53 20t44 58q15 29 24 63.5t9 60.5z" />
<glyph unicode="A" horiz-adv-x="694" d="M495 246l-145 369l-151 -369h296zM687 0h-95l-68 174h-354l-71 -174h-92l304 708h80z" />
<glyph unicode="B" horiz-adv-x="627" d="M546 528q0 -55 -35 -97.5t-90 -57.5v-2q67 -11 111.5 -58.5t44.5 -115.5q0 -92 -64 -144.5t-170 -52.5h-253v708h228q105 0 166.5 -47.5t61.5 -132.5zM464 521q0 55 -40.5 85t-112.5 30h-135v-232h140q65 0 106.5 31.5t41.5 85.5zM489 198q0 61 -44 97.5t-109 36.5h-160 v-260h153q76 0 118 33t42 93z" />
<glyph unicode="C" horiz-adv-x="721" d="M429 55q67 0 130.5 29t118.5 84v-101q-54 -43 -119.5 -65t-137.5 -22q-159 0 -261.5 105t-102.5 269q0 163 103 268.5t260 105.5q68 0 132.5 -19.5t113.5 -55.5v-98q-61 50 -119.5 73.5t-118.5 23.5q-122 0 -200.5 -84.5t-78.5 -213.5q0 -130 78.5 -214.5t201.5 -84.5z " />
<glyph unicode="D" horiz-adv-x="768" d="M710 354q0 -167 -104 -260.5t-284 -93.5h-232v708h225q187 0 291 -92t104 -262zM618 354q0 133 -80.5 206.5t-221.5 73.5h-136v-561h133q146 0 225.5 72.5t79.5 208.5z" />
<glyph unicode="E" horiz-adv-x="594" d="M546 0h-456v708h442v-74h-354v-233h331v-74h-331v-254h368v-73z" />
<glyph unicode="F" horiz-adv-x="567" d="M522 634h-343v-245h315v-73h-315v-316h-89v671l-15 37h447v-74z" />
<glyph unicode="G" horiz-adv-x="775" d="M677 667v-99q-57 40 -118.5 62t-118.5 22q-129 0 -210 -84t-81 -214q0 -134 78.5 -217t209.5 -83q48 0 91 10t80 29v213h-162v73h249v-290l16 -34q-60 -35 -131 -54t-143 -19q-170 0 -275 103.5t-105 268.5t105.5 269.5t272.5 104.5q67 0 129.5 -16t112.5 -45z" />
<glyph unicode="H" horiz-adv-x="742" d="M650 0h-88v331h-383v-331h-89v708h89v-304h383v304h88v-708z" />
<glyph unicode="I" horiz-adv-x="270" d="M179 0h-89v708h89v-708z" />
<glyph unicode="J" horiz-adv-x="474" d="M386 708v-500q0 -110 -52 -168t-150 -58q-45 0 -82 13.5t-60 37.5v101q29 -38 64 -58t72 -20q60 0 91 39.5t31 114.5v498h86z" />
<glyph unicode="K" horiz-adv-x="618" d="M599 0h-113l-308 349h-2v-349h-86v708h86v-305h1l296 305h109l-324 -325z" />
<glyph unicode="L" horiz-adv-x="508" d="M494 0h-404v708h86v-635h318v-73z" />
<glyph unicode="M" horiz-adv-x="923" d="M431 0l-253 597h-5l3 -597h-86v708h131l239 -575h4l237 575h130v-708h-86l1 597h-4l-254 -597h-57z" />
<glyph unicode="N" horiz-adv-x="765" d="M176 0h-86v708h105l394 -595h3l-4 595h87v-708h-108l-391 588h-3z" />
<glyph unicode="O" horiz-adv-x="856" d="M428 -20q-162 0 -266.5 105t-104.5 269t104.5 269t266.5 105q161 0 265.5 -106t104.5 -271q0 -163 -104 -267t-266 -104zM428 652q-121 0 -200 -85t-79 -213t79 -213.5t200 -85.5t200 84.5t79 211.5q0 128 -79.5 214.5t-199.5 86.5z" />
<glyph unicode="P" horiz-adv-x="617" d="M573 510q0 -95 -64 -150.5t-168 -55.5h-165v-304h-86v708h243q113 0 176.5 -51t63.5 -147zM481 509q0 59 -40 92t-105 33h-160v-256h163q63 0 102.5 35t39.5 96z" />
<glyph unicode="Q" horiz-adv-x="856" d="M795 39v-80q-40 0 -79.5 17.5t-87.5 56.5q-44 -26 -94.5 -39.5t-105.5 -13.5q-162 0 -266.5 105t-104.5 269t104.5 269t266.5 105q161 0 265.5 -106t104.5 -271q0 -80 -27 -149t-79 -120q30 -22 55.5 -32.5t47.5 -10.5zM149 354q0 -128 79 -213.5t200 -85.5q37 0 71.5 9 t66.5 26q-2 3 -4.5 5.5t-5.5 4.5l-99 100l56 52l100 -100q4 -3 7.5 -6.5t6.5 -7.5q39 41 59.5 96t20.5 117q0 128 -79.5 214.5t-199.5 86.5q-121 0 -200 -85t-79 -213z" />
<glyph unicode="R" horiz-adv-x="642" d="M327 634h-151v-245h155q75 0 116 32.5t41 91.5t-41.5 90t-119.5 31zM176 0h-86v708h252q113 0 174.5 -49.5t61.5 -144.5q0 -77 -45.5 -126t-125.5 -62l198 -326h-100l-185 316h-144v-316z" />
<glyph unicode="S" horiz-adv-x="570" d="M303 728q54 0 103 -15.5t93 -47.5v-99q-52 46 -102 68.5t-99 22.5q-64 0 -102 -34t-38 -92q0 -49 30.5 -79.5t115.5 -55.5q115 -34 162.5 -82.5t47.5 -125.5q0 -94 -67 -151t-170 -57q-56 0 -110.5 16.5t-106.5 49.5v104q59 -51 113 -75.5t105 -24.5q66 0 106 36t40 95 q0 49 -33.5 81.5t-120.5 58.5q-109 31 -155 79.5t-46 128.5q0 90 65.5 144.5t168.5 54.5z" />
<glyph unicode="T" horiz-adv-x="562" d="M549 634h-224v-634h-88v634h-224v74h536v-74z" />
<glyph unicode="U" horiz-adv-x="733" d="M652 708v-435q0 -140 -74.5 -216.5t-213.5 -76.5q-137 0 -210.5 76.5t-73.5 216.5v435h86v-432q0 -105 51.5 -164t148.5 -59q96 0 147.5 59t51.5 164v432h87z" />
<glyph unicode="V" horiz-adv-x="642" d="M7 708h95l218 -606h2l219 606h93l-270 -708h-90z" />
<glyph unicode="W" horiz-adv-x="988" d="M493 583h-2l-177 -583h-86l-212 708h94l163 -580h3l171 580h92l175 -580h3l163 580h90l-213 -708h-85z" />
<glyph unicode="X" horiz-adv-x="645" d="M625 0h-109l-197 305l-196 -305h-103l248 369l-228 339h106l176 -276l174 276h104l-227 -337z" />
<glyph unicode="Y" horiz-adv-x="590" d="M584 708l-246 -406v-302h-86v302l-246 406h102l190 -333l188 333h98z" />
<glyph unicode="Z" horiz-adv-x="607" d="M568 0h-522v76l410 558h-398v74h499v-73l-417 -562h428v-73z" />
<glyph unicode="[" horiz-adv-x="288" d="M248 -152h-180v888h180v-59h-106v-770h106v-59z" />
<glyph unicode="\" horiz-adv-x="397" d="M386 0h-78l-297 708h78z" />
<glyph unicode="]" horiz-adv-x="287" d="M218 736v-888h-180v57h108v774h-108v57h180z" />
<glyph unicode="^" d="M280 644l-136 -263h-77l177 327h72l176 -327h-78z" />
<glyph unicode="_" horiz-adv-x="500" d="M500 -136h-500v54h500v-54z" />
<glyph unicode="`" horiz-adv-x="282" d="M198 569h-73l-125 144h92z" />
<glyph unicode="a" horiz-adv-x="537" d="M378 116v118l-145 -14q-51 -5 -76 -27t-25 -63q0 -40 26 -62t72 -22q34 0 68.5 16t79.5 54zM51 126q0 57 34.5 91t104.5 46l172 30q8 1 11 4t3 10v13q0 52 -31.5 80.5t-87.5 28.5q-45 0 -90 -16.5t-83 -47.5v79q32 24 80 38t99 14q96 0 146 -50t50 -146v-180 q0 -29 2.5 -61.5t6.5 -58.5h-80q-2 9 -4 25t-3 30h-2q-38 -35 -78 -52t-83 -17q-79 0 -123 36t-44 104z" />
<glyph unicode="b" horiz-adv-x="622" d="M165 708v-279h2q43 35 82.5 50t84.5 15q104 0 169.5 -69t65.5 -181q0 -113 -66.5 -185.5t-169.5 -72.5q-42 0 -77.5 11t-73.5 38q-9 7 -12 8.5t-5 1.5q-3 0 -5 -3t-2 -9v-33h-74v708h81zM321 51q72 0 119 54.5t47 136.5q0 81 -45.5 133.5t-116.5 52.5q-41 0 -77.5 -17.5 t-82.5 -59.5v-225q41 -41 77.5 -58t78.5 -17z" />
<glyph unicode="c" horiz-adv-x="493" d="M461 107v-80q-34 -21 -72 -31.5t-81 -10.5q-113 0 -185.5 71t-72.5 183t73.5 184t185.5 72q40 0 79 -11t71 -31v-85q-45 35 -79 49t-70 14q-76 0 -127 -55.5t-51 -136.5q0 -82 51 -136t130 -54q37 0 71 13t77 45z" />
<glyph unicode="d" horiz-adv-x="621" d="M292 51q46 0 83 17t79 58v230q-49 42 -84.5 57t-80.5 15q-68 0 -112.5 -53.5t-44.5 -133.5q0 -82 45 -136t115 -54zM454 0v53h-1q-44 -38 -81.5 -52.5t-86.5 -14.5q-105 0 -170 69.5t-65 182.5t65.5 184.5t167.5 71.5q46 0 86 -13t84 -44h1v271h82v-708h-82z" />
<glyph unicode="e" horiz-adv-x="574" d="M291 429q-63 0 -106 -42t-51 -107h311q-6 69 -47 109t-107 40zM499 119v-82q-46 -27 -90.5 -39.5t-97.5 -12.5q-120 0 -190.5 69.5t-70.5 187.5q0 112 67.5 182.5t172.5 70.5q106 0 169 -66.5t63 -170.5q0 -10 -1 -20t-2 -17h-385q8 -82 54 -126.5t125 -44.5 q51 0 94.5 16.5t91.5 52.5z" />
<glyph unicode="f" horiz-adv-x="314" d="M305 480v-68h-120v-412h-81v412h-89v68h89v82q0 76 41 117t114 41q13 0 28.5 -1.5t28.5 -4.5v-71q-12 5 -23.5 7t-22.5 2q-41 0 -63 -25.5t-22 -72.5v-74h120z" />
<glyph unicode="g" horiz-adv-x="595" d="M418 315q0 55 -33.5 87t-91.5 32t-91.5 -32t-33.5 -87q0 -56 33.5 -88t91.5 -32t91.5 32t33.5 88zM559 -78q0 -80 -70 -127t-192 -47q-112 0 -174.5 37.5t-62.5 104.5q0 39 22.5 68.5t64.5 45.5v2q-21 8 -34.5 30t-13.5 47q0 28 12.5 50.5t39.5 44.5q-30 22 -45.5 56.5 t-15.5 80.5q0 83 55 131t148 48q15 0 31 -1.5t43 -5.5q25 -4 38.5 -5.5t26.5 -1.5h140v-68h-110v-2q17 -17 26 -41.5t9 -54.5q0 -80 -56.5 -128.5t-148.5 -48.5q-26 0 -49.5 4t-45.5 11q-12 -11 -19 -24t-7 -26q0 -19 14.5 -31t38.5 -12h165q83 0 126.5 -35t43.5 -102z M481 -89q0 39 -28 58.5t-83 19.5h-121q-52 0 -82 -25t-30 -65q0 -42 44.5 -66t123.5 -24q81 0 128.5 27.5t47.5 74.5z" />
<glyph unicode="h" horiz-adv-x="590" d="M167 708v-277h2q44 35 81 49t84 14q82 0 129.5 -49t47.5 -133v-312h-81v306q0 55 -31.5 88.5t-84.5 33.5q-36 0 -69.5 -16.5t-77.5 -57.5v-354h-81v708h81z" />
<glyph unicode="i" horiz-adv-x="250" d="M175 669q0 -21 -14.5 -36t-35.5 -15q-22 0 -36.5 14.5t-14.5 36.5q0 21 15 36t36 15t35.5 -15t14.5 -36zM165 0h-81v480h81v-480z" />
<glyph unicode="j" horiz-adv-x="250" d="M175 669q0 -21 -14.5 -36t-35.5 -15q-22 0 -36.5 14.5t-14.5 36.5q0 21 15 36t36 15t35.5 -15t14.5 -36zM84 480h81v-540q0 -97 -33.5 -138.5t-107.5 -41.5q-10 0 -21.5 1.5t-23.5 3.5v65q7 -2 14.5 -3t13.5 -1q40 0 58.5 24t18.5 81v549z" />
<glyph unicode="k" horiz-adv-x="501" d="M385 0l-218 238h-2v-238h-81v708h81v-437h2l202 209h97l-221 -221l240 -259h-100z" />
<glyph unicode="l" horiz-adv-x="250" d="M84 708h81v-586q0 -27 13 -41.5t38 -14.5h21v-66h-47q-51 0 -78.5 29t-27.5 82v597z" />
<glyph unicode="m" horiz-adv-x="894" d="M305 428q-36 0 -66 -16t-72 -60v-352h-81v377q0 28 -2 52.5t-7 50.5h79q3 -10 5 -25t3 -28h1q42 37 77.5 52t78.5 15q52 0 90 -20.5t58 -59.5q46 44 85 62t87 18q82 0 127.5 -48t45.5 -134v-312h-80v306q0 54 -28.5 88t-76.5 34q-38 0 -70 -18t-70 -62q1 -13 1.5 -21 t0.5 -15v-312h-81v306q0 53 -29 87.5t-76 34.5z" />
<glyph unicode="n" horiz-adv-x="590" d="M164 427h1q48 39 84 53t81 14q84 0 132.5 -49t48.5 -133v-312h-81v306q0 54 -32 88t-86 34q-37 0 -70.5 -17.5t-74.5 -58.5v-352h-81v377q0 28 -2 52.5t-7 50.5h79q3 -10 5 -25t3 -28z" />
<glyph unicode="o" horiz-adv-x="608" d="M303 -15q-111 0 -182 70.5t-71 183.5t71.5 184.5t181.5 71.5q112 0 182.5 -70t70.5 -184q0 -113 -71.5 -184.5t-181.5 -71.5zM303 428q-75 0 -123 -53t-48 -134q0 -83 48 -136.5t123 -53.5t123 53.5t48 134.5q0 82 -48 135.5t-123 53.5z" />
<glyph unicode="p" horiz-adv-x="622" d="M326 51q71 0 117 54t46 136q0 81 -46.5 134t-117.5 53q-46 0 -81.5 -18t-78.5 -63v-230q39 -36 76 -51t85 -15zM330 -14q-46 0 -84.5 11.5t-79.5 36.5h-1v-274h-81v720h73l5 -53h2q39 34 80.5 50.5t89.5 16.5q105 0 171 -69.5t66 -181.5q0 -113 -67.5 -185t-173.5 -72z " />
<glyph unicode="q" horiz-adv-x="621" d="M289 -14q-107 0 -173 70t-66 183t65.5 184t167.5 71q40 0 76 -10t76 -36q10 -6 13 -7.5t5 -1.5q4 0 6 3.5t2 9.5v28h75v-607q0 -30 4 -50t15 -37l-72 -30q-14 18 -21 45t-7 62v186q-42 -33 -81.5 -48t-84.5 -15zM293 51q46 0 85.5 18.5t76.5 57.5v227q-35 36 -77 55 t-87 19q-69 0 -114 -54t-45 -134q0 -81 45.5 -135t115.5 -54z" />
<glyph unicode="r" horiz-adv-x="349" d="M163 404h2q21 44 61.5 67t98.5 23h15v-73q-7 1 -15 2t-16 1q-45 0 -79 -23.5t-63 -75.5v-325h-81v377q0 28 -2 52.5t-7 50.5h79q3 -16 5 -36.5t2 -39.5z" />
<glyph unicode="s" horiz-adv-x="448" d="M224 -14q-45 0 -89.5 13t-83.5 37v92q40 -36 85.5 -56.5t87.5 -20.5q44 0 70.5 20t26.5 54t-23 52t-106 39q-66 16 -100.5 52t-34.5 88q0 62 50 100.5t123 38.5q42 0 79 -10.5t74 -33.5v-88q-42 35 -78 50.5t-74 15.5q-41 0 -66.5 -18t-25.5 -49q0 -33 22.5 -50t90.5 -35 q79 -20 115 -55t36 -90q0 -66 -51 -106t-128 -40z" />
<glyph unicode="t" horiz-adv-x="330" d="M308 63v-63q-19 -6 -37.5 -9t-33.5 -3q-64 0 -99 34t-35 97v293h-91v68h91v130h79v-130h127v-68h-127v-277q0 -41 19 -61t57 -20q11 0 25 2.5t25 6.5z" />
<glyph unicode="u" horiz-adv-x="590" d="M425 56h-2q-38 -37 -76 -53.5t-86 -16.5q-88 0 -136 52t-48 146v296h82v-288q0 -64 32 -102.5t86 -38.5q39 0 71.5 17.5t72.5 63.5v348h81v-377q0 -29 2 -53.5t7 -49.5h-78q-4 11 -6 26.5t-2 29.5z" />
<glyph unicode="v" horiz-adv-x="496" d="M295 0h-93l-187 480h91l145 -400h2l140 400h87z" />
<glyph unicode="w" horiz-adv-x="782" d="M390 388h-2l-131 -388h-85l-150 480h87l108 -386h3l128 386h88l131 -386h2l108 386h83l-151 -480h-86z" />
<glyph unicode="x" horiz-adv-x="514" d="M496 0h-97l-143 198l-144 -198h-95l189 251l-169 229h96l125 -178l124 178h93l-168 -229z" />
<glyph unicode="y" horiz-adv-x="500" d="M93 -247v74q38 13 61 41t43 81l8 21q5 15 5 25t-6 24l-185 461h91l146 -401l137 401h87l-204 -538q-35 -94 -76 -136.5t-107 -52.5z" />
<glyph unicode="z" horiz-adv-x="462" d="M422 0h-384v66l275 346h-263v68h362v-63l-278 -350h288v-67z" />
<glyph unicode="{" horiz-adv-x="323" d="M26 262v59q39 0 55.5 23.5t16.5 75.5v175q0 69 31.5 105t90.5 36h64v-59h-42q-35 0 -53.5 -23t-18.5 -67v-176q0 -52 -19 -82.5t-54 -35.5v-2q35 -7 54 -37.5t19 -81.5v-175q0 -44 18.5 -67t53.5 -23h42v-59h-64q-59 0 -90.5 36t-31.5 105v172q0 52 -17 76.5t-55 24.5z " />
<glyph unicode="|" horiz-adv-x="238" d="M157 -250h-77v1000h77v-1000z" />
<glyph unicode="}" horiz-adv-x="323" d="M297 321v-59q-39 0 -56 -24.5t-17 -76.5v-172q0 -69 -31 -105t-90 -36h-65v59h43q35 0 53 23t18 67v175q0 51 19.5 81.5t54.5 37.5v2q-35 5 -54.5 35.5t-19.5 82.5v176q0 44 -18 67t-53 23h-43v59h65q59 0 90 -36t31 -105v-175q0 -52 17 -75.5t56 -23.5z" />
<glyph unicode="~" d="M175 377q29 0 52.5 -7.5t54.5 -27.5q37 -26 60.5 -36t48.5 -10q29 0 54.5 19t50.5 60l37 -54q-31 -47 -67 -71.5t-75 -24.5q-29 0 -52.5 7.5t-55.5 28.5q-42 27 -63 36t-45 9q-33 0 -61.5 -20.5t-49.5 -59.5l-37 54q29 49 66 73t82 24z" />
<glyph unicode="&#xa1;" horiz-adv-x="335" d="M109 388q0 23 17 39t41 16t41 -16t17 -39q0 -24 -17 -40t-41 -16t-41 16.5t-17 39.5zM129 234h76l15 -506h-105z" />
<glyph unicode="&#xa2;" d="M153 239q0 -67 36 -117t95 -66v369q-59 -17 -95 -68t-36 -118zM482 107v-80q-30 -19 -64 -29.5t-72 -12.5v-63h-62v66q-96 15 -154.5 83t-58.5 168q0 99 59 168t154 84v77h62v-73q36 -2 71 -13t62 -29v-85q-40 31 -71 45.5t-62 16.5v-381q33 2 65 15.5t71 42.5z" />
<glyph unicode="&#xa3;" d="M368 726q39 0 73.5 -9t65.5 -27v-90q-39 27 -69.5 38.5t-60.5 11.5q-64 0 -96.5 -40.5t-32.5 -118.5v-92h153v-67h-153v-258h246v-74h-440v74h108v258h-101v67h101v100q0 106 54.5 166.5t151.5 60.5z" />
<glyph unicode="&#xa4;" horiz-adv-x="573" d="M520 580l42 -40l-84 -83q24 -31 36 -68.5t12 -80.5q0 -44 -13 -83t-38 -70l87 -88l-41 -39l-88 89q-30 -23 -67.5 -35.5t-77.5 -12.5t-77 12.5t-70 36.5l-90 -90l-41 39l89 91q-24 29 -36 67t-12 83q0 43 11.5 80t34.5 67l-87 85l42 40l85 -87q32 26 70 39t81 13t81 -13 t67 -38zM288 130q73 0 120 50.5t47 127.5t-47 127.5t-120 50.5q-74 0 -121 -50.5t-47 -127.5t47 -127.5t121 -50.5z" />
<glyph unicode="&#xa5;" d="M496 238v-59h-174v-179h-86v179h-170v59h170v104h-170v58h135l-196 308h101l176 -289l173 289h99l-197 -308h139v-58h-174v-104h174z" />
<glyph unicode="&#xa6;" horiz-adv-x="238" d="M80 332v418h77v-418h-77zM80 -250v420h77v-420h-77z" />
<glyph unicode="&#xa7;" horiz-adv-x="600" d="M316 386l-55 20q-42 -8 -67.5 -33.5t-25.5 -63.5q0 -35 22 -58.5t88 -47.5l57 -21q43 4 69.5 30t26.5 65q0 34 -25.5 59t-89.5 50zM484 27q0 -76 -58 -121t-149 -45q-60 0 -115 23.5t-89 63.5l49 64q33 -40 74 -61t86 -21q49 0 80 25.5t31 67.5q0 34 -24 58t-90 49 l-33 12q-94 35 -125 69t-31 92q0 49 30 84.5t81 50.5q-46 24 -64 53t-18 73q0 73 56.5 118t141.5 45q60 0 107 -20t78 -59l-53 -56q-25 33 -58 50t-72 17q-47 0 -79 -27t-32 -71q0 -34 19.5 -55.5t88.5 -47.5l32 -12q90 -34 125.5 -71t35.5 -92q0 -50 -30 -85t-82 -48 q44 -20 65.5 -50.5t21.5 -72.5z" />
<glyph unicode="&#xa8;" horiz-adv-x="282" d="M270 650q0 -19 -14 -33t-33 -14q-20 0 -34.5 13.5t-14.5 33.5q0 19 14.5 32.5t34.5 13.5q19 0 33 -13.5t14 -32.5zM107 650q0 -19 -14 -33t-33 -14q-20 0 -34 13.5t-14 33.5q0 19 14 32.5t34 13.5q19 0 33 -13.5t14 -32.5z" />
<glyph unicode="&#xa9;" horiz-adv-x="800" d="M780 353q0 -156 -111 -265.5t-268 -109.5q-158 0 -269.5 109.5t-111.5 265.5q0 76 29 145t83 122q53 53 123 81.5t146 28.5t145.5 -28.5t122.5 -81.5t82 -122t29 -145zM743 353q0 142 -100.5 242.5t-241.5 100.5q-143 0 -244.5 -100.5t-101.5 -242.5q0 -143 100 -243 t243 -100t244 100.5t101 242.5zM420 176q38 0 73 14.5t64 41.5v-64q-26 -23 -63 -35.5t-79 -12.5q-98 0 -162 65t-64 166q0 100 63.5 165t161.5 65q39 0 76 -13t65 -36v-64q-29 27 -65.5 42.5t-70.5 15.5q-69 0 -115 -50.5t-46 -124.5q0 -75 45.5 -125t116.5 -50z" />
<glyph unicode="&#xaa;" horiz-adv-x="363" d="M250 497v76l-73 -9q-45 -6 -61.5 -18t-16.5 -37q0 -24 16 -37t46 -13q27 0 51 10.5t38 27.5zM42 506q0 38 25.5 58t87.5 28l84 13q5 1 7.5 3t2.5 7v1q0 32 -18 48t-54 16q-34 0 -62.5 -10.5t-54.5 -32.5v47q19 17 52 27t69 10q61 0 93.5 -29.5t32.5 -84.5v-106 q0 -18 1.5 -37t3.5 -34h-56q-2 5 -3 12t-2 21q-17 -18 -47 -29.5t-59 -11.5q-48 0 -75.5 22t-27.5 62zM318 354v-39h-277v39h277z" />
<glyph unicode="&#xab;" horiz-adv-x="526" d="M257 70l-57 -36l-142 214l141 213l57 -35l-114 -178zM457 70l-58 -36l-141 214l140 213l58 -35l-114 -178z" />
<glyph unicode="&#xac;" d="M517 136h-72v220h-410v63h482v-283z" />
<glyph unicode="&#xad;" horiz-adv-x="0" />
<glyph unicode="&#xae;" horiz-adv-x="600" d="M301 267q-95 0 -162 65.5t-67 159.5t67 160.5t162 66.5q94 0 160.5 -66.5t66.5 -160.5t-66.5 -159.5t-160.5 -65.5zM301 694q-85 0 -144.5 -59.5t-59.5 -142.5t60 -142t144 -59q82 0 141 59.5t59 141.5q0 83 -59 142.5t-141 59.5zM257 588v-83h40q29 0 43.5 11t14.5 33 q0 19 -13 29t-36 10h-49zM342 479l71 -111h-52l-64 105h-40v-105h-46v256h95q45 0 70.5 -20t25.5 -56q0 -27 -16.5 -46t-43.5 -23z" />
<glyph unicode="&#xaf;" horiz-adv-x="282" d="M272 613h-264v52h264v-52z" />
<glyph unicode="&#xb0;" horiz-adv-x="413" d="M206 720q67 0 112 -45t45 -111t-45.5 -111t-111.5 -45t-111.5 45.5t-45.5 110.5q0 66 45.5 111t111.5 45zM206 449q48 0 81.5 33.5t33.5 81.5t-34 82t-81 34t-81 -34t-34 -82t33.5 -81.5t81.5 -33.5z" />
<glyph unicode="&#xb1;" d="M32 309v66h210v186h70v-186h216v-66h-214v-182h-71v182h-211zM33 0v64h493v-64h-493z" />
<glyph unicode="&#xb2;" horiz-adv-x="348" d="M28 285v51l148 150q37 37 50 60t13 46q0 32 -19.5 52t-51.5 20q-35 0 -67.5 -17.5t-65.5 -53.5v71q27 28 62 43t74 15q60 0 98 -33.5t38 -87.5q0 -35 -14.5 -64.5t-67.5 -84.5l-106 -114h191v-53h-282z" />
<glyph unicode="&#xb3;" horiz-adv-x="348" d="M163 665q-33 0 -64.5 -11.5t-58.5 -33.5v64q25 18 58 28t69 10q61 0 96 -30.5t35 -84.5q0 -37 -20.5 -63t-56.5 -34v-1q41 -8 65.5 -37t24.5 -68q0 -59 -40 -93.5t-107 -34.5q-37 0 -73.5 12.5t-62.5 33.5v70q29 -29 65 -44.5t75 -15.5q34 0 54.5 21t20.5 55q0 35 -26 55 t-68 20h-42v46h45q37 0 58 18.5t21 52.5q0 29 -19 47t-49 18z" />
<glyph unicode="&#xb4;" horiz-adv-x="282" d="M283 713l-127 -144h-73l106 144h94z" />
<glyph unicode="&#xb5;" horiz-adv-x="590" d="M425 57h-1q-30 -34 -67 -52.5t-78 -18.5q-39 0 -69 14.5t-44 39.5v-280h-83v720h83v-288q0 -65 33 -102t92 -37q40 0 70 15t61 52v360h83v-346q0 -33 1.5 -72.5t4.5 -61.5h-80z" />
<glyph unicode="&#xb6;" horiz-adv-x="616" d="M524 -127h-70v776h-118v-776h-70v464q-96 1 -155 50.5t-59 128.5q0 94 61 143t175 49h236v-835z" />
<glyph unicode="&#xb7;" horiz-adv-x="282" d="M141 283q-22 0 -37 14.5t-15 35.5t15.5 35.5t36.5 14.5t35.5 -14.5t14.5 -35.5t-15 -35.5t-35 -14.5z" />
<glyph unicode="&#xb8;" horiz-adv-x="282" d="M255 -142q0 -42 -36.5 -65t-93.5 -23q-24 0 -54 6t-52 15l16 37q16 -8 40.5 -12.5t44.5 -4.5q34 0 53 12.5t19 35.5q0 20 -15 30t-44 10q-15 0 -32 -3.5t-27 -8.5l-23 17l72 96h52l-55 -74q9 3 19 4t24 1q43 0 67.5 -19t24.5 -54z" />
<glyph unicode="&#xb9;" horiz-adv-x="348" d="M232 285h-67v358q-20 -22 -40 -38t-41 -26l-32 46q31 16 60 37.5t58 49.5h62v-427z" />
<glyph unicode="&#xba;" horiz-adv-x="363" d="M181 721q66 0 107.5 -41t41.5 -107q0 -67 -42 -108.5t-107 -41.5t-106.5 42t-41.5 108t41.5 107t106.5 41zM277 573q0 46 -27 76.5t-69 30.5t-68.5 -30.5t-26.5 -76.5q0 -47 27 -77.5t69 -30.5t68.5 30.5t26.5 77.5zM319 354v-38h-277v38h277z" />
<glyph unicode="&#xbb;" horiz-adv-x="526" d="M268 248l-141 -213l-57 35l114 178l-115 178l57 36zM468 248l-141 -213l-58 35l115 178l-115 178l58 36z" />
<glyph unicode="&#xbc;" horiz-adv-x="824" d="M232 285h-67v358q-20 -22 -40 -38t-41 -26l-32 46q31 16 60 37.5t58 49.5h62v-427zM645 714l-404 -741l-46 21l404 742zM807 94h-55v-94h-65v94h-197v55q26 62 75.5 138t104.5 140h82v-280h55v-53zM687 147v218h-2q-41 -53 -77.5 -111t-58.5 -107h138z" />
<glyph unicode="&#xbd;" horiz-adv-x="824" d="M232 285h-67v358q-20 -22 -40 -38t-41 -26l-32 46q31 16 60 37.5t58 49.5h62v-427zM623 714l-404 -741l-46 21l404 742zM504 0v51l148 150q37 37 50 60t13 46q0 32 -19.5 52t-51.5 20q-35 0 -67.5 -17.5t-65.5 -53.5v71q27 28 62 43t74 15q60 0 98 -33.5t38 -87.5 q0 -35 -14.5 -64.5t-67.5 -84.5l-106 -114h191v-53h-282z" />
<glyph unicode="&#xbe;" horiz-adv-x="824" d="M163 665q-33 0 -64.5 -11.5t-58.5 -33.5v64q25 18 58 28t69 10q61 0 96 -30.5t35 -84.5q0 -37 -20.5 -63t-56.5 -34v-1q41 -8 65.5 -37t24.5 -68q0 -59 -40 -93.5t-107 -34.5q-37 0 -73.5 12.5t-62.5 33.5v70q29 -29 65 -44.5t75 -15.5q34 0 54.5 21t20.5 55q0 35 -26 55 t-68 20h-42v46h45q37 0 58 18.5t21 52.5q0 29 -19 47t-49 18zM659 714l-404 -741l-46 21l404 742zM807 94h-55v-94h-65v94h-197v55q26 62 75.5 138t104.5 140h82v-280h55v-53zM687 147v218h-2q-41 -53 -77.5 -111t-58.5 -107h138z" />
<glyph unicode="&#xbf;" horiz-adv-x="518" d="M197 388q0 23 17 39t41 16t41.5 -16t17.5 -39q0 -24 -17 -40t-42 -16q-24 0 -41 16.5t-17 39.5zM41 -109q0 47 20 82.5t85 85.5l67 56v118h85v-141l-100 -81q-38 -30 -52.5 -56t-14.5 -58q0 -54 34 -85.5t90 -31.5q54 0 89.5 30.5t44.5 83.5h83q-13 -88 -71 -136.5 t-147 -48.5q-98 0 -155.5 49t-57.5 133z" />
<glyph unicode="&#xc0;" horiz-adv-x="694" d="M495 246l-145 369l-151 -369h296zM687 0h-95l-68 174h-354l-71 -174h-92l304 708h80zM404 801h-73l-125 144h92z" />
<glyph unicode="&#xc1;" horiz-adv-x="694" d="M495 246l-145 369l-151 -369h296zM687 0h-95l-68 174h-354l-71 -174h-92l304 708h80zM489 945l-127 -144h-73l106 144h94z" />
<glyph unicode="&#xc2;" horiz-adv-x="694" d="M495 246l-145 369l-151 -369h296zM687 0h-95l-68 174h-354l-71 -174h-92l304 708h80zM506 801h-82l-77 118l-77 -118h-81l107 144h102z" />
<glyph unicode="&#xc3;" horiz-adv-x="694" d="M495 246l-145 369l-151 -369h296zM687 0h-95l-68 174h-354l-71 -174h-92l304 708h80zM287 943q22 0 40.5 -10.5t35.5 -32.5q16 -19 23.5 -25.5t15.5 -6.5q15 0 23 15.5t12 53.5h53q-4 -62 -25 -91.5t-59 -29.5q-21 0 -39.5 10.5t-36.5 32.5q-17 20 -24.5 26t-14.5 6 q-15 0 -23 -15.5t-12 -53.5h-52q4 62 24.5 91.5t58.5 29.5z" />
<glyph unicode="&#xc4;" horiz-adv-x="694" d="M495 246l-145 369l-151 -369h296zM687 0h-95l-68 174h-354l-71 -174h-92l304 708h80zM476 882q0 -19 -14 -33t-33 -14q-20 0 -34.5 13.5t-14.5 33.5q0 19 14.5 32.5t34.5 13.5q19 0 33 -13.5t14 -32.5zM313 882q0 -19 -14 -33t-33 -14q-20 0 -34 13.5t-14 33.5 q0 19 14 32.5t34 13.5q19 0 33 -13.5t14 -32.5z" />
<glyph unicode="&#xc5;" horiz-adv-x="694" d="M350 847q-26 0 -44 -18t-18 -44t18 -44.5t44 -18.5q25 0 43 18.5t18 44.5t-17.5 44t-43.5 18zM495 246l-145 369l-151 -369h296zM687 0h-95l-68 174h-354l-71 -174h-92l290 676q-32 15 -51 44.5t-19 64.5q0 49 36.5 84.5t86.5 35.5t86 -35.5t36 -84.5q0 -35 -18.5 -63.5 t-49.5 -44.5z" />
<glyph unicode="&#xc6;" horiz-adv-x="951" d="M461 637h-25l-212 -392h237v392zM904 0h-443v173h-276l-94 -173h-91l383 708h506v-74h-341v-233h318v-74h-318v-254h356v-73z" />
<glyph unicode="&#xc7;" horiz-adv-x="721" d="M528 -142q0 -42 -36.5 -65t-94.5 -23q-24 0 -53.5 6t-52.5 15l17 37q16 -8 40 -12.5t45 -4.5q34 0 52.5 12.5t18.5 35.5q0 20 -15 30t-44 10q-15 0 -32 -3.5t-26 -8.5l-23 17l58 78q-145 14 -235 117t-90 255q0 163 103 268.5t260 105.5q68 0 132.5 -19.5t113.5 -55.5 v-98q-61 50 -119.5 73.5t-118.5 23.5q-122 0 -200.5 -84.5t-78.5 -213.5q0 -130 78.5 -214.5t201.5 -84.5q67 0 130.5 29t118.5 84v-101q-51 -40 -113.5 -62.5t-131.5 -24.5l-41 -54q9 3 19.5 4t23.5 1q43 0 68 -19t25 -54z" />
<glyph unicode="&#xc8;" horiz-adv-x="594" d="M546 0h-456v708h442v-74h-354v-233h331v-74h-331v-254h368v-73zM379 801h-73l-125 144h92z" />
<glyph unicode="&#xc9;" horiz-adv-x="594" d="M546 0h-456v708h442v-74h-354v-233h331v-74h-331v-254h368v-73zM464 945l-127 -144h-73l106 144h94z" />
<glyph unicode="&#xca;" horiz-adv-x="594" d="M546 0h-456v708h442v-74h-354v-233h331v-74h-331v-254h368v-73zM481 801h-82l-77 118l-77 -118h-81l107 144h102z" />
<glyph unicode="&#xcb;" horiz-adv-x="594" d="M546 0h-456v708h442v-74h-354v-233h331v-74h-331v-254h368v-73zM451 882q0 -19 -14 -33t-33 -14q-20 0 -34.5 13.5t-14.5 33.5q0 19 14.5 32.5t34.5 13.5q19 0 33 -13.5t14 -32.5zM288 882q0 -19 -14 -33t-33 -14q-20 0 -34 13.5t-14 33.5q0 19 14 32.5t34 13.5 q19 0 33 -13.5t14 -32.5z" />
<glyph unicode="&#xcc;" horiz-adv-x="270" d="M179 0h-89v708h89v-708zM193 801h-73l-125 144h92z" />
<glyph unicode="&#xcd;" horiz-adv-x="270" d="M179 0h-89v708h89v-708zM278 945l-127 -144h-73l106 144h94z" />
<glyph unicode="&#xce;" horiz-adv-x="270" d="M179 0h-89v708h89v-708zM295 801h-82l-77 118l-77 -118h-81l107 144h102z" />
<glyph unicode="&#xcf;" horiz-adv-x="270" d="M179 0h-89v708h89v-708zM265 882q0 -19 -14 -33t-33 -14q-20 0 -34.5 13.5t-14.5 33.5q0 19 14.5 32.5t34.5 13.5q19 0 33 -13.5t14 -32.5zM102 882q0 -19 -14 -33t-33 -14q-20 0 -34 13.5t-14 33.5q0 19 14 32.5t34 13.5q19 0 33 -13.5t14 -32.5z" />
<glyph unicode="&#xd0;" horiz-adv-x="768" d="M710 354q0 -167 -104 -260.5t-284 -93.5h-232v336h-70v65h70v307h225q187 0 291 -92t104 -262zM180 336v-263h133q146 0 225.5 72.5t79.5 208.5q0 133 -80.5 206.5t-221.5 73.5h-136v-233h213v-65h-213z" />
<glyph unicode="&#xd1;" horiz-adv-x="765" d="M176 0h-86v708h105l394 -595h3l-4 595h87v-708h-108l-391 588h-3zM322 943q22 0 40.5 -10.5t35.5 -32.5q16 -19 23.5 -25.5t15.5 -6.5q15 0 23 15.5t12 53.5h53q-4 -62 -25 -91.5t-59 -29.5q-21 0 -39.5 10.5t-36.5 32.5q-17 20 -24.5 26t-14.5 6q-15 0 -23 -15.5 t-12 -53.5h-52q4 62 24.5 91.5t58.5 29.5z" />
<glyph unicode="&#xd2;" horiz-adv-x="856" d="M428 -20q-162 0 -266.5 105t-104.5 269t104.5 269t266.5 105q161 0 265.5 -106t104.5 -271q0 -163 -104 -267t-266 -104zM428 652q-121 0 -200 -85t-79 -213t79 -213.5t200 -85.5t200 84.5t79 211.5q0 128 -79.5 214.5t-199.5 86.5zM484 801h-73l-125 144h92z" />
<glyph unicode="&#xd3;" horiz-adv-x="856" d="M428 -20q-162 0 -266.5 105t-104.5 269t104.5 269t266.5 105q161 0 265.5 -106t104.5 -271q0 -163 -104 -267t-266 -104zM428 652q-121 0 -200 -85t-79 -213t79 -213.5t200 -85.5t200 84.5t79 211.5q0 128 -79.5 214.5t-199.5 86.5zM569 945l-127 -144h-73l106 144h94z " />
<glyph unicode="&#xd4;" horiz-adv-x="856" d="M428 -20q-162 0 -266.5 105t-104.5 269t104.5 269t266.5 105q161 0 265.5 -106t104.5 -271q0 -163 -104 -267t-266 -104zM428 652q-121 0 -200 -85t-79 -213t79 -213.5t200 -85.5t200 84.5t79 211.5q0 128 -79.5 214.5t-199.5 86.5zM586 801h-82l-77 118l-77 -118h-81 l107 144h102z" />
<glyph unicode="&#xd5;" horiz-adv-x="856" d="M428 -20q-162 0 -266.5 105t-104.5 269t104.5 269t266.5 105q161 0 265.5 -106t104.5 -271q0 -163 -104 -267t-266 -104zM428 652q-121 0 -200 -85t-79 -213t79 -213.5t200 -85.5t200 84.5t79 211.5q0 128 -79.5 214.5t-199.5 86.5zM367 943q22 0 40.5 -10.5t35.5 -32.5 q16 -19 23.5 -25.5t15.5 -6.5q15 0 23 15.5t12 53.5h53q-4 -62 -25 -91.5t-59 -29.5q-21 0 -39.5 10.5t-36.5 32.5q-17 20 -24.5 26t-14.5 6q-15 0 -23 -15.5t-12 -53.5h-52q4 62 24.5 91.5t58.5 29.5z" />
<glyph unicode="&#xd6;" horiz-adv-x="856" d="M428 -20q-162 0 -266.5 105t-104.5 269t104.5 269t266.5 105q161 0 265.5 -106t104.5 -271q0 -163 -104 -267t-266 -104zM428 652q-121 0 -200 -85t-79 -213t79 -213.5t200 -85.5t200 84.5t79 211.5q0 128 -79.5 214.5t-199.5 86.5zM556 882q0 -19 -14 -33t-33 -14 q-20 0 -34.5 13.5t-14.5 33.5q0 19 14.5 32.5t34.5 13.5q19 0 33 -13.5t14 -32.5zM393 882q0 -19 -14 -33t-33 -14q-20 0 -34 13.5t-14 33.5q0 19 14 32.5t34 13.5q19 0 33 -13.5t14 -32.5z" />
<glyph unicode="&#xd7;" d="M118 96l-50 46l163 163l-163 163l49 46l163 -163l161 164l49 -46l-162 -164l162 -163l-49 -46l-161 163z" />
<glyph unicode="&#xd8;" horiz-adv-x="856" d="M428 652q-121 0 -200 -85t-79 -213q0 -64 21 -120t61 -97l334 479q-30 18 -65 27t-72 9zM428 55q121 0 200 84.5t79 211.5q0 66 -22.5 123.5t-64.5 99.5l-335 -480q32 -19 68 -29t75 -10zM798 351q0 -163 -104 -267t-266 -104q-52 0 -99.5 12t-90.5 35l-54 -77h-84 l82 117q-60 51 -92.5 125t-32.5 162q0 164 104.5 269t266.5 105q50 0 97 -11.5t87 -33.5l53 75h84l-80 -114q62 -52 95.5 -128t33.5 -165z" />
<glyph unicode="&#xd9;" horiz-adv-x="733" d="M652 708v-435q0 -140 -74.5 -216.5t-213.5 -76.5q-137 0 -210.5 76.5t-73.5 216.5v435h86v-432q0 -105 51.5 -164t148.5 -59q96 0 147.5 59t51.5 164v432h87zM423 801h-73l-125 144h92z" />
<glyph unicode="&#xda;" horiz-adv-x="733" d="M652 708v-435q0 -140 -74.5 -216.5t-213.5 -76.5q-137 0 -210.5 76.5t-73.5 216.5v435h86v-432q0 -105 51.5 -164t148.5 -59q96 0 147.5 59t51.5 164v432h87zM508 945l-127 -144h-73l106 144h94z" />
<glyph unicode="&#xdb;" horiz-adv-x="733" d="M652 708v-435q0 -140 -74.5 -216.5t-213.5 -76.5q-137 0 -210.5 76.5t-73.5 216.5v435h86v-432q0 -105 51.5 -164t148.5 -59q96 0 147.5 59t51.5 164v432h87zM525 801h-82l-77 118l-77 -118h-81l107 144h102z" />
<glyph unicode="&#xdc;" horiz-adv-x="733" d="M652 708v-435q0 -140 -74.5 -216.5t-213.5 -76.5q-137 0 -210.5 76.5t-73.5 216.5v435h86v-432q0 -105 51.5 -164t148.5 -59q96 0 147.5 59t51.5 164v432h87zM495 882q0 -19 -14 -33t-33 -14q-20 0 -34.5 13.5t-14.5 33.5q0 19 14.5 32.5t34.5 13.5q19 0 33 -13.5 t14 -32.5zM332 882q0 -19 -14 -33t-33 -14q-20 0 -34 13.5t-14 33.5q0 19 14 32.5t34 13.5q19 0 33 -13.5t14 -32.5z" />
<glyph unicode="&#xdd;" horiz-adv-x="590" d="M584 708l-246 -406v-302h-86v302l-246 406h102l190 -333l188 333h98zM437 945l-127 -144h-73l106 144h94z" />
<glyph unicode="&#xde;" horiz-adv-x="591" d="M176 169v-169h-86v708h86v-140h131q114 0 177 -50.5t63 -146.5q0 -93 -64 -147.5t-169 -54.5h-138zM455 371q0 58 -40 91t-106 33h-133v-253h136q64 0 103.5 34.5t39.5 94.5z" />
<glyph unicode="&#xdf;" horiz-adv-x="611" d="M437 535q0 55 -35 87.5t-94 32.5q-71 0 -108.5 -47.5t-37.5 -134.5v-473h-80v479q0 117 60.5 183t168.5 66q95 0 153.5 -51.5t58.5 -134.5q0 -60 -33.5 -102.5t-89.5 -55.5v-3q79 -14 119 -60.5t40 -124.5q0 -97 -62 -151.5t-169 -54.5q-16 0 -32.5 2t-30.5 5v73 q33 -6 40.5 -7t14.5 -1q72 0 112.5 36.5t40.5 102.5q0 72 -40.5 107t-124.5 35h-17v70h20q56 0 91 33t35 89z" />
<glyph unicode="&#xe0;" horiz-adv-x="537" d="M378 116v118l-145 -14q-51 -5 -76 -27t-25 -63q0 -40 26 -62t72 -22q34 0 68.5 16t79.5 54zM51 126q0 57 34.5 91t104.5 46l172 30q8 1 11 4t3 10v13q0 52 -31.5 80.5t-87.5 28.5q-45 0 -90 -16.5t-83 -47.5v79q32 24 80 38t99 14q96 0 146 -50t50 -146v-180 q0 -29 2.5 -61.5t6.5 -58.5h-80q-2 9 -4 25t-3 30h-2q-38 -35 -78 -52t-83 -17q-79 0 -123 36t-44 104zM323 569h-73l-125 144h92z" />
<glyph unicode="&#xe1;" horiz-adv-x="537" d="M378 116v118l-145 -14q-51 -5 -76 -27t-25 -63q0 -40 26 -62t72 -22q34 0 68.5 16t79.5 54zM51 126q0 57 34.5 91t104.5 46l172 30q8 1 11 4t3 10v13q0 52 -31.5 80.5t-87.5 28.5q-45 0 -90 -16.5t-83 -47.5v79q32 24 80 38t99 14q96 0 146 -50t50 -146v-180 q0 -29 2.5 -61.5t6.5 -58.5h-80q-2 9 -4 25t-3 30h-2q-38 -35 -78 -52t-83 -17q-79 0 -123 36t-44 104zM408 713l-127 -144h-73l106 144h94z" />
<glyph unicode="&#xe2;" horiz-adv-x="537" d="M378 116v118l-145 -14q-51 -5 -76 -27t-25 -63q0 -40 26 -62t72 -22q34 0 68.5 16t79.5 54zM51 126q0 57 34.5 91t104.5 46l172 30q8 1 11 4t3 10v13q0 52 -31.5 80.5t-87.5 28.5q-45 0 -90 -16.5t-83 -47.5v79q32 24 80 38t99 14q96 0 146 -50t50 -146v-180 q0 -29 2.5 -61.5t6.5 -58.5h-80q-2 9 -4 25t-3 30h-2q-38 -35 -78 -52t-83 -17q-79 0 -123 36t-44 104zM425 569h-82l-77 118l-77 -118h-81l107 144h102z" />
<glyph unicode="&#xe3;" horiz-adv-x="537" d="M378 116v118l-145 -14q-51 -5 -76 -27t-25 -63q0 -40 26 -62t72 -22q34 0 68.5 16t79.5 54zM51 126q0 57 34.5 91t104.5 46l172 30q8 1 11 4t3 10v13q0 52 -31.5 80.5t-87.5 28.5q-45 0 -90 -16.5t-83 -47.5v79q32 24 80 38t99 14q96 0 146 -50t50 -146v-180 q0 -29 2.5 -61.5t6.5 -58.5h-80q-2 9 -4 25t-3 30h-2q-38 -35 -78 -52t-83 -17q-79 0 -123 36t-44 104zM206 711q22 0 40.5 -10.5t35.5 -32.5q16 -19 23.5 -25.5t15.5 -6.5q15 0 23 15.5t12 53.5h53q-4 -62 -25 -91.5t-59 -29.5q-21 0 -39.5 10.5t-36.5 32.5 q-17 20 -24.5 26t-14.5 6q-15 0 -23 -15.5t-12 -53.5h-52q4 62 24.5 91.5t58.5 29.5z" />
<glyph unicode="&#xe4;" horiz-adv-x="537" d="M378 116v118l-145 -14q-51 -5 -76 -27t-25 -63q0 -40 26 -62t72 -22q34 0 68.5 16t79.5 54zM51 126q0 57 34.5 91t104.5 46l172 30q8 1 11 4t3 10v13q0 52 -31.5 80.5t-87.5 28.5q-45 0 -90 -16.5t-83 -47.5v79q32 24 80 38t99 14q96 0 146 -50t50 -146v-180 q0 -29 2.5 -61.5t6.5 -58.5h-80q-2 9 -4 25t-3 30h-2q-38 -35 -78 -52t-83 -17q-79 0 -123 36t-44 104zM395 650q0 -19 -14 -33t-33 -14q-20 0 -34.5 13.5t-14.5 33.5q0 19 14.5 32.5t34.5 13.5q19 0 33 -13.5t14 -32.5zM232 650q0 -19 -14 -33t-33 -14q-20 0 -34 13.5 t-14 33.5q0 19 14 32.5t34 13.5q19 0 33 -13.5t14 -32.5z" />
<glyph unicode="&#xe5;" horiz-adv-x="537" d="M378 116v118l-145 -14q-51 -5 -76 -27t-25 -63q0 -40 26 -62t72 -22q34 0 68.5 16t79.5 54zM51 126q0 57 34.5 91t104.5 46l172 30q8 1 11 4t3 10v13q0 52 -31.5 80.5t-87.5 28.5q-45 0 -90 -16.5t-83 -47.5v79q32 24 80 38t99 14q96 0 146 -50t50 -146v-180 q0 -29 2.5 -61.5t6.5 -58.5h-80q-2 9 -4 25t-3 30h-2q-38 -35 -78 -52t-83 -17q-79 0 -123 36t-44 104zM266 559q-46 0 -78 31t-32 76q0 44 32.5 75.5t77.5 31.5t77 -31.5t32 -75.5q0 -45 -32 -76t-77 -31zM266 722q-24 0 -40 -16t-16 -40t16 -40.5t40 -16.5q23 0 39 16.5 t16 40.5q0 23 -16 39.5t-39 16.5z" />
<glyph unicode="&#xe6;" horiz-adv-x="888" d="M611 429q-58 0 -99.5 -39.5t-51.5 -102.5h299q-6 66 -45.5 104t-102.5 38zM133 131q0 -42 26.5 -65.5t70.5 -23.5q38 0 80 26.5t81 76.5q-7 21 -10.5 42.5t-4.5 42.5l-137 -12q-54 -5 -80 -26.5t-26 -60.5zM813 119v-82q-46 -27 -89 -39.5t-93 -12.5q-72 0 -128 28.5 t-89 81.5q-50 -57 -97.5 -83t-104.5 -26q-76 0 -119 36.5t-43 103.5q0 58 37 91.5t116 46.5l158 25q7 1 10 4t3 7v21q0 54 -31 83t-86 29q-45 0 -90 -16.5t-83 -47.5v78q31 23 80 36.5t99 13.5q60 0 103.5 -20.5t67.5 -60.5q32 38 77.5 58.5t98.5 20.5q103 0 164.5 -64.5 t61.5 -167.5v-35h-377q7 -86 52 -132t122 -46q47 0 89.5 16t90.5 53z" />
<glyph unicode="&#xe7;" horiz-adv-x="493" d="M393 -142q0 -42 -36.5 -65t-93.5 -23q-24 0 -54 6t-52 15l16 37q16 -8 40.5 -12.5t44.5 -4.5q34 0 53 12.5t19 35.5q0 20 -15 30t-44 10q-15 0 -32 -3.5t-27 -8.5l-23 17l64 86q-92 17 -147.5 84.5t-55.5 164.5q0 112 73.5 184t185.5 72q40 0 79 -11t71 -31v-85 q-45 35 -79 49t-70 14q-76 0 -127 -55.5t-51 -136.5q0 -82 51 -136t130 -54q37 0 71 13t77 45v-80q-34 -21 -72 -31.5t-81 -10.5h-2.5h-3.5l-44 -59q9 3 19 4t24 1q43 0 67.5 -19t24.5 -54z" />
<glyph unicode="&#xe8;" horiz-adv-x="574" d="M291 429q-63 0 -106 -42t-51 -107h311q-6 69 -47 109t-107 40zM499 119v-82q-46 -27 -90.5 -39.5t-97.5 -12.5q-120 0 -190.5 69.5t-70.5 187.5q0 112 67.5 182.5t172.5 70.5q106 0 169 -66.5t63 -170.5q0 -10 -1 -20t-2 -17h-385q8 -82 54 -126.5t125 -44.5 q51 0 94.5 16.5t91.5 52.5zM344 569h-73l-125 144h92z" />
<glyph unicode="&#xe9;" horiz-adv-x="574" d="M291 429q-63 0 -106 -42t-51 -107h311q-6 69 -47 109t-107 40zM499 119v-82q-46 -27 -90.5 -39.5t-97.5 -12.5q-120 0 -190.5 69.5t-70.5 187.5q0 112 67.5 182.5t172.5 70.5q106 0 169 -66.5t63 -170.5q0 -10 -1 -20t-2 -17h-385q8 -82 54 -126.5t125 -44.5 q51 0 94.5 16.5t91.5 52.5zM429 713l-127 -144h-73l106 144h94z" />
<glyph unicode="&#xea;" horiz-adv-x="574" d="M291 429q-63 0 -106 -42t-51 -107h311q-6 69 -47 109t-107 40zM499 119v-82q-46 -27 -90.5 -39.5t-97.5 -12.5q-120 0 -190.5 69.5t-70.5 187.5q0 112 67.5 182.5t172.5 70.5q106 0 169 -66.5t63 -170.5q0 -10 -1 -20t-2 -17h-385q8 -82 54 -126.5t125 -44.5 q51 0 94.5 16.5t91.5 52.5zM446 569h-82l-77 118l-77 -118h-81l107 144h102z" />
<glyph unicode="&#xeb;" horiz-adv-x="574" d="M291 429q-63 0 -106 -42t-51 -107h311q-6 69 -47 109t-107 40zM499 119v-82q-46 -27 -90.5 -39.5t-97.5 -12.5q-120 0 -190.5 69.5t-70.5 187.5q0 112 67.5 182.5t172.5 70.5q106 0 169 -66.5t63 -170.5q0 -10 -1 -20t-2 -17h-385q8 -82 54 -126.5t125 -44.5 q51 0 94.5 16.5t91.5 52.5zM416 650q0 -19 -14 -33t-33 -14q-20 0 -34.5 13.5t-14.5 33.5q0 19 14.5 32.5t34.5 13.5q19 0 33 -13.5t14 -32.5zM253 650q0 -19 -14 -33t-33 -14q-20 0 -34 13.5t-14 33.5q0 19 14 32.5t34 13.5q19 0 33 -13.5t14 -32.5z" />
<glyph unicode="&#xec;" horiz-adv-x="250" d="M165 0h-81v480h81v-480zM182 569h-73l-125 144h92z" />
<glyph unicode="&#xed;" horiz-adv-x="250" d="M165 0h-81v480h81v-480zM267 713l-127 -144h-73l106 144h94z" />
<glyph unicode="&#xee;" horiz-adv-x="250" d="M165 0h-81v480h81v-480zM284 569h-82l-77 118l-77 -118h-81l107 144h102z" />
<glyph unicode="&#xef;" horiz-adv-x="250" d="M165 0h-81v480h81v-480zM254 650q0 -19 -14 -33t-33 -14q-20 0 -34.5 13.5t-14.5 33.5q0 19 14.5 32.5t34.5 13.5q19 0 33 -13.5t14 -32.5zM91 650q0 -19 -14 -33t-33 -14q-20 0 -34 13.5t-14 33.5q0 19 14 32.5t34 13.5q19 0 33 -13.5t14 -32.5z" />
<glyph unicode="&#xf0;" horiz-adv-x="608" d="M556 256q0 -122 -70.5 -196.5t-182.5 -74.5q-111 0 -182 71t-71 184q0 112 71.5 184t181.5 72q39 0 72.5 -12.5t61.5 -38.5q-21 50 -51.5 94t-69.5 82l-113 -50l-18 47l89 40q-18 14 -38 27.5t-41 25.5l59 29q23 -14 43 -27.5t38 -27.5l108 48l18 -47l-84 -37 q85 -81 132 -184t47 -209zM132 241q0 -82 48 -135.5t123 -53.5t123 53t48 134q0 82 -48 135t-123 53t-123 -52.5t-48 -133.5z" />
<glyph unicode="&#xf1;" horiz-adv-x="590" d="M164 427h1q48 39 84 53t81 14q84 0 132.5 -49t48.5 -133v-312h-81v306q0 54 -32 88t-86 34q-37 0 -70.5 -17.5t-74.5 -58.5v-352h-81v377q0 28 -2 52.5t-7 50.5h79q3 -10 5 -25t3 -28zM235 711q22 0 40.5 -10.5t35.5 -32.5q16 -19 23.5 -25.5t15.5 -6.5q15 0 23 15.5 t12 53.5h53q-4 -62 -25 -91.5t-59 -29.5q-21 0 -39.5 10.5t-36.5 32.5q-17 20 -24.5 26t-14.5 6q-15 0 -23 -15.5t-12 -53.5h-52q4 62 24.5 91.5t58.5 29.5z" />
<glyph unicode="&#xf2;" horiz-adv-x="608" d="M303 -15q-111 0 -182 70.5t-71 183.5t71.5 184.5t181.5 71.5q112 0 182.5 -70t70.5 -184q0 -113 -71.5 -184.5t-181.5 -71.5zM303 428q-75 0 -123 -53t-48 -134q0 -83 48 -136.5t123 -53.5t123 53.5t48 134.5q0 82 -48 135.5t-123 53.5zM360 569h-73l-125 144h92z" />
<glyph unicode="&#xf3;" horiz-adv-x="608" d="M303 -15q-111 0 -182 70.5t-71 183.5t71.5 184.5t181.5 71.5q112 0 182.5 -70t70.5 -184q0 -113 -71.5 -184.5t-181.5 -71.5zM303 428q-75 0 -123 -53t-48 -134q0 -83 48 -136.5t123 -53.5t123 53.5t48 134.5q0 82 -48 135.5t-123 53.5zM445 713l-127 -144h-73l106 144 h94z" />
<glyph unicode="&#xf4;" horiz-adv-x="608" d="M303 -15q-111 0 -182 70.5t-71 183.5t71.5 184.5t181.5 71.5q112 0 182.5 -70t70.5 -184q0 -113 -71.5 -184.5t-181.5 -71.5zM303 428q-75 0 -123 -53t-48 -134q0 -83 48 -136.5t123 -53.5t123 53.5t48 134.5q0 82 -48 135.5t-123 53.5zM462 569h-82l-77 118l-77 -118 h-81l107 144h102z" />
<glyph unicode="&#xf5;" horiz-adv-x="608" d="M303 -15q-111 0 -182 70.5t-71 183.5t71.5 184.5t181.5 71.5q112 0 182.5 -70t70.5 -184q0 -113 -71.5 -184.5t-181.5 -71.5zM303 428q-75 0 -123 -53t-48 -134q0 -83 48 -136.5t123 -53.5t123 53.5t48 134.5q0 82 -48 135.5t-123 53.5zM243 711q22 0 40.5 -10.5 t35.5 -32.5q16 -19 23.5 -25.5t15.5 -6.5q15 0 23 15.5t12 53.5h53q-4 -62 -25 -91.5t-59 -29.5q-21 0 -39.5 10.5t-36.5 32.5q-17 20 -24.5 26t-14.5 6q-15 0 -23 -15.5t-12 -53.5h-52q4 62 24.5 91.5t58.5 29.5z" />
<glyph unicode="&#xf6;" horiz-adv-x="608" d="M303 -15q-111 0 -182 70.5t-71 183.5t71.5 184.5t181.5 71.5q112 0 182.5 -70t70.5 -184q0 -113 -71.5 -184.5t-181.5 -71.5zM303 428q-75 0 -123 -53t-48 -134q0 -83 48 -136.5t123 -53.5t123 53.5t48 134.5q0 82 -48 135.5t-123 53.5zM432 650q0 -19 -14 -33t-33 -14 q-20 0 -34.5 13.5t-14.5 33.5q0 19 14.5 32.5t34.5 13.5q19 0 33 -13.5t14 -32.5zM269 650q0 -19 -14 -33t-33 -14q-20 0 -34 13.5t-14 33.5q0 19 14 32.5t34 13.5q19 0 33 -13.5t14 -32.5z" />
<glyph unicode="&#xf7;" d="M279 428q-24 0 -41.5 17t-17.5 41t17.5 41t41.5 17t41 -17t17 -41t-17 -41t-41 -17zM31 269v66h496v-66h-496zM279 60q-24 0 -41.5 17t-17.5 41t17.5 41t41.5 17q23 0 40.5 -17.5t17.5 -40.5q0 -24 -17 -41t-41 -17z" />
<glyph unicode="&#xf8;" horiz-adv-x="608" d="M303 427q-75 0 -123 -52.5t-48 -133.5q0 -42 13.5 -78t38.5 -62l197 308q-17 9 -36.5 13.5t-41.5 4.5zM303 52q75 0 123 53t48 134q0 40 -13 76t-38 62l-197 -307q17 -9 36.5 -13.5t40.5 -4.5zM556 241q0 -113 -71.5 -184.5t-181.5 -71.5q-32 0 -61 6.5t-54 18.5l-32 -50 h-62l49 77q-45 35 -69 87t-24 116q0 112 71.5 184t181.5 72q31 0 61 -6.5t57 -18.5l31 49h62l-49 -77q44 -34 67.5 -86t23.5 -116z" />
<glyph unicode="&#xf9;" horiz-adv-x="590" d="M425 56h-2q-38 -37 -76 -53.5t-86 -16.5q-88 0 -136 52t-48 146v296h82v-288q0 -64 32 -102.5t86 -38.5q39 0 71.5 17.5t72.5 63.5v348h81v-377q0 -29 2 -53.5t7 -49.5h-78q-4 11 -6 26.5t-2 29.5zM352 569h-73l-125 144h92z" />
<glyph unicode="&#xfa;" horiz-adv-x="590" d="M425 56h-2q-38 -37 -76 -53.5t-86 -16.5q-88 0 -136 52t-48 146v296h82v-288q0 -64 32 -102.5t86 -38.5q39 0 71.5 17.5t72.5 63.5v348h81v-377q0 -29 2 -53.5t7 -49.5h-78q-4 11 -6 26.5t-2 29.5zM437 713l-127 -144h-73l106 144h94z" />
<glyph unicode="&#xfb;" horiz-adv-x="590" d="M425 56h-2q-38 -37 -76 -53.5t-86 -16.5q-88 0 -136 52t-48 146v296h82v-288q0 -64 32 -102.5t86 -38.5q39 0 71.5 17.5t72.5 63.5v348h81v-377q0 -29 2 -53.5t7 -49.5h-78q-4 11 -6 26.5t-2 29.5zM454 569h-82l-77 118l-77 -118h-81l107 144h102z" />
<glyph unicode="&#xfc;" horiz-adv-x="590" d="M425 56h-2q-38 -37 -76 -53.5t-86 -16.5q-88 0 -136 52t-48 146v296h82v-288q0 -64 32 -102.5t86 -38.5q39 0 71.5 17.5t72.5 63.5v348h81v-377q0 -29 2 -53.5t7 -49.5h-78q-4 11 -6 26.5t-2 29.5zM424 650q0 -19 -14 -33t-33 -14q-20 0 -34.5 13.5t-14.5 33.5 q0 19 14.5 32.5t34.5 13.5q19 0 33 -13.5t14 -32.5zM261 650q0 -19 -14 -33t-33 -14q-20 0 -34 13.5t-14 33.5q0 19 14 32.5t34 13.5q19 0 33 -13.5t14 -32.5z" />
<glyph unicode="&#xfd;" horiz-adv-x="500" d="M93 -247v74q38 13 61 41t43 81l8 21q5 15 5 25t-6 24l-185 461h91l146 -401l137 401h87l-204 -538q-35 -94 -76 -136.5t-107 -52.5zM392 713l-127 -144h-73l106 144h94z" />
<glyph unicode="&#xfe;" horiz-adv-x="622" d="M489 241q0 81 -46.5 134t-117.5 53q-46 0 -82 -19t-78 -66v-224q38 -36 75.5 -52t85.5 -16q71 0 117 54t46 136zM330 -14q-46 0 -85 12t-79 38h-1v-276h-81v948h81v-284q40 36 81 53t88 17q105 0 171 -69.5t66 -181.5q0 -113 -68 -185t-173 -72z" />
<glyph unicode="&#xff;" horiz-adv-x="500" d="M93 -247v74q38 13 61 41t43 81l8 21q5 15 5 25t-6 24l-185 461h91l146 -401l137 401h87l-204 -538q-35 -94 -76 -136.5t-107 -52.5zM379 650q0 -19 -14 -33t-33 -14q-20 0 -34.5 13.5t-14.5 33.5q0 19 14.5 32.5t34.5 13.5q19 0 33 -13.5t14 -32.5zM216 650 q0 -19 -14 -33t-33 -14q-20 0 -34 13.5t-14 33.5q0 19 14 32.5t34 13.5q19 0 33 -13.5t14 -32.5z" />
<glyph unicode="&#x131;" horiz-adv-x="250" d="M165 0h-81v480h81v-480z" />
<glyph unicode="&#x152;" horiz-adv-x="982" d="M935 73v-73h-491q-178 0 -282.5 94.5t-104.5 259.5t104 259.5t281 94.5h479v-74h-324v-233h302v-73h-302v-255h338zM149 354q0 -133 80.5 -207t219.5 -74h60v561h-60q-139 0 -219.5 -74t-80.5 -206z" />
<glyph unicode="&#x153;" horiz-adv-x="999" d="M714 429q-63 0 -106 -42t-51 -107h311q-6 69 -47 109t-107 40zM304 426q-75 0 -122 -52t-47 -133q0 -82 47 -134.5t122 -52.5q74 0 121.5 52.5t47.5 132.5q0 81 -47.5 134t-121.5 53zM922 119v-82q-46 -27 -90.5 -39.5t-97.5 -12.5q-75 0 -132.5 28t-89.5 81 q-33 -52 -87.5 -80.5t-120.5 -28.5q-112 0 -183 70.5t-71 184.5q0 113 72 185t182 72q66 0 121 -28.5t88 -80.5q31 51 83.5 79t116.5 28q106 0 169 -66.5t63 -172.5v-35h-388q8 -82 54 -126.5t125 -44.5q51 0 94.5 16.5t91.5 52.5z" />
<glyph unicode="&#x178;" horiz-adv-x="590" d="M584 708l-246 -406v-302h-86v302l-246 406h102l190 -333l188 333h98zM424 882q0 -19 -14 -33t-33 -14q-20 0 -34.5 13.5t-14.5 33.5q0 19 14.5 32.5t34.5 13.5q19 0 33 -13.5t14 -32.5zM261 882q0 -19 -14 -33t-33 -14q-20 0 -34 13.5t-14 33.5q0 19 14 32.5t34 13.5 q19 0 33 -13.5t14 -32.5z" />
<glyph unicode="&#x2c6;" horiz-adv-x="282" d="M300 569h-82l-77 118l-77 -118h-81l107 144h102z" />
<glyph unicode="&#x2da;" horiz-adv-x="282" d="M141 559q-46 0 -78 31t-32 76q0 44 32.5 75.5t77.5 31.5t77 -31.5t32 -75.5q0 -45 -32 -76t-77 -31zM141 722q-24 0 -40 -16t-16 -40t16 -40.5t40 -16.5q23 0 39 16.5t16 40.5q0 23 -16 39.5t-39 16.5z" />
<glyph unicode="&#x2dc;" horiz-adv-x="282" d="M81 711q22 0 40.5 -10.5t35.5 -32.5q16 -19 23.5 -25.5t15.5 -6.5q15 0 23 15.5t12 53.5h53q-4 -62 -25 -91.5t-59 -29.5q-21 0 -39.5 10.5t-36.5 32.5q-17 20 -24.5 26t-14.5 6q-15 0 -23 -15.5t-12 -53.5h-52q4 62 24.5 91.5t58.5 29.5z" />
<glyph unicode="&#x2013;" horiz-adv-x="500" d="M470 236h-440v59h440v-59z" />
<glyph unicode="&#x2014;" horiz-adv-x="1000" d="M970 236h-940v59h940v-59z" />
<glyph unicode="&#x2018;" horiz-adv-x="264" d="M205 708l-63 -247h-84l77 247h70z" />
<glyph unicode="&#x2019;" horiz-adv-x="264" d="M57 461l63 247h83l-76 -247h-70z" />
<glyph unicode="&#x201a;" horiz-adv-x="264" d="M57 -133l63 243h83l-76 -243h-70z" />
<glyph unicode="&#x201c;" horiz-adv-x="428" d="M206 708l-65 -247h-83l78 247h70zM370 708l-62 -247h-83l74 247h71z" />
<glyph unicode="&#x201d;" horiz-adv-x="428" d="M220 461l66 247h82l-77 -247h-71zM57 461l63 247h82l-75 -247h-70z" />
<glyph unicode="&#x201e;" horiz-adv-x="428" d="M220 -133l66 243h82l-77 -243h-71zM57 -133l63 243h82l-75 -243h-70z" />
<glyph unicode="&#x2022;" horiz-adv-x="500" d="M250 177q-73 0 -125 52t-52 125q0 74 52 125.5t125 51.5q74 0 125.5 -51.5t51.5 -125.5q0 -73 -51.5 -125t-125.5 -52z" />
<glyph unicode="&#x2026;" horiz-adv-x="838" d="M753 44q0 -23 -16 -37.5t-40 -14.5t-40 14.5t-16 37.5q0 22 16.5 38t39.5 16t39.5 -16t16.5 -38zM475 44q0 -23 -16.5 -37.5t-39.5 -14.5q-25 0 -41 14.5t-16 37.5q0 22 17 38t40 16t39.5 -16t16.5 -38zM197 44q0 -23 -16.5 -37.5t-39.5 -14.5q-25 0 -41 14.5t-16 37.5 q0 22 17 38t40 16t39.5 -16t16.5 -38z" />
<glyph unicode="&#x2039;" horiz-adv-x="327" d="M257 70l-57 -36l-142 214l141 213l57 -35l-114 -178z" />
<glyph unicode="&#x203a;" horiz-adv-x="327" d="M268 248l-141 -213l-57 35l114 178l-115 178l57 36z" />
<glyph unicode="&#x2044;" horiz-adv-x="127" d="M289 714l-404 -741l-46 21l404 742z" />
<glyph unicode="&#x2074;" horiz-adv-x="348" d="M331 379h-55v-94h-65v94h-197v55q26 62 75.5 138t104.5 140h82v-280h55v-53zM211 432v218h-2q-41 -53 -77.5 -111t-58.5 -107h138z" />
<glyph unicode="&#x20ac;" d="M534 113v-92q-34 -20 -75 -30.5t-83 -10.5q-109 0 -187.5 68.5t-105.5 187.5h-78l24 59h45q-1 14 -2 27.5t-1 26.5q0 17 1 32.5t2 30.5h-63l21 60h53q28 118 106.5 187t184.5 69q36 0 75.5 -9.5t72.5 -26.5v-92q-53 30 -85.5 40.5t-64.5 10.5q-68 0 -122 -48t-78 -131 h284l-21 -60h-275q-2 -14 -3 -29t-1 -34q0 -14 1 -27.5t2 -26.5h245l-22 -59h-211q23 -84 77 -132.5t126 -48.5q39 0 76 13.5t82 44.5z" />
<glyph unicode="&#x2122;" horiz-adv-x="974" d="M353 651h-124v-347h-76v347h-123v57h323v-57zM505 628l2 -324h-75v404h98l131 -321h2l128 321h99v-404h-75l1 324h-2l-136 -324h-37l-134 324h-2z" />
<glyph unicode="&#x25fc;" horiz-adv-x="480" d="M0 480h480v-480h-480v480z" />
</font>
</defs>
</svg>
